REM DIRINDEX 1\6,1\2\7,1\2\8,1\2\9,1\3\10,1\3\11,1\4\12,1\4\13,1\4\14,1\5\15,1\5\16,1\5\17
REM DIRNAME cjc041,folder01,folder02,folder03,folder04,folder05,folder06,folder07,folder08,folder09,folder10,folder11,folder12,folder13,folder14,folder15,folder16
TITLE ""
FILE "3Q_t2_0279-0294.mp3" MP3
  TRACK 01 AUDIO
    TITLE "7:cjc041_4250"
    INDEX 01 00:00:00
  TRACK 02 AUDIO
    TITLE "0:"
    INDEX 01 00:01:01
  TRACK 03 AUDIO
    TITLE "8:cjc041_4251"
    INDEX 01 00:01:56
  TRACK 04 AUDIO
    TITLE "0:"
    INDEX 01 00:06:39
  TRACK 05 AUDIO
    TITLE "9:cjc041_4252"
    INDEX 01 00:07:17
  TRACK 06 AUDIO
    TITLE "0:"
    INDEX 01 00:08:26
  TRACK 07 AUDIO
    TITLE "7:cjc041_4253"
    INDEX 01 00:10:08
  TRACK 08 AUDIO
    TITLE "0:"
    INDEX 01 00:11:33
  TRACK 09 AUDIO
    TITLE "8:cjc041_4254"
    INDEX 01 00:12:14
  TRACK 10 AUDIO
    TITLE "0:"
    INDEX 01 00:15:09
  TRACK 11 AUDIO
    TITLE "9:cjc041_4255"
    INDEX 01 00:15:66
  TRACK 12 AUDIO
    TITLE "0:"
    INDEX 01 00:17:14
  TRACK 13 AUDIO
    TITLE "7:cjc041_4256"
    INDEX 01 00:18:70
  TRACK 14 AUDIO
    TITLE "0:"
    INDEX 01 00:20:08
  TRACK 15 AUDIO
    TITLE "8:cjc041_4257"
    INDEX 01 00:20:63
  TRACK 16 AUDIO
    TITLE "0:"
    INDEX 01 00:22:09
  TRACK 17 AUDIO
    TITLE "9:cjc041_4258"
    INDEX 01 00:22:72
  TRACK 18 AUDIO
    TITLE "0:"
    INDEX 01 00:24:10
  TRACK 19 AUDIO
    TITLE "7:cjc041_4259"
    INDEX 01 00:25:66
  TRACK 20 AUDIO
    TITLE "0:"
    INDEX 01 00:27:00
  TRACK 21 AUDIO
    TITLE "8:cjc041_4260"
    INDEX 01 00:27:51
  TRACK 22 AUDIO
    TITLE "0:"
    INDEX 01 00:29:68
  TRACK 23 AUDIO
    TITLE "9:cjc041_4261"
    INDEX 01 00:30:46
  TRACK 24 AUDIO
    TITLE "0:"
    INDEX 01 00:31:59
  TRACK 25 AUDIO
    TITLE "7:cjc041_4262"
    INDEX 01 00:33:36
  TRACK 26 AUDIO
    TITLE "0:"
    INDEX 01 00:34:45
  TRACK 27 AUDIO
    TITLE "8:cjc041_4263"
    INDEX 01 00:35:21
  TRACK 28 AUDIO
    TITLE "0:"
    INDEX 01 00:37:08
  TRACK 29 AUDIO
    TITLE "9:cjc041_4264"
    INDEX 01 00:37:61
  TRACK 30 AUDIO
    TITLE "0:"
    INDEX 01 00:38:69
  TRACK 31 AUDIO
    TITLE "7:cjc041_4265"
    INDEX 01 00:40:52
  TRACK 32 AUDIO
    TITLE "0:"
    INDEX 01 00:41:45
  TRACK 33 AUDIO
    TITLE "8:cjc041_4266"
    INDEX 01 00:42:25
  TRACK 34 AUDIO
    TITLE "0:"
    INDEX 01 00:44:26
  TRACK 35 AUDIO
    TITLE "9:cjc041_4267"
    INDEX 01 00:45:02
  TRACK 36 AUDIO
    TITLE "0:"
    INDEX 01 00:45:73
  TRACK 37 AUDIO
    TITLE "7:cjc041_4268"
    INDEX 01 00:47:60
  TRACK 38 AUDIO
    TITLE "0:"
    INDEX 01 00:49:10
  TRACK 39 AUDIO
    TITLE "8:cjc041_4269"
    INDEX 01 00:49:65
  TRACK 40 AUDIO
    TITLE "0:"
    INDEX 01 00:52:20
  TRACK 41 AUDIO
    TITLE "9:cjc041_4270"
    INDEX 01 00:52:73
  TRACK 42 AUDIO
    TITLE "0:"
    INDEX 01 00:54:30
  TRACK 43 AUDIO
    TITLE "7:cjc041_4271"
    INDEX 01 00:56:12
  TRACK 44 AUDIO
    TITLE "0:"
    INDEX 01 00:57:17
  TRACK 45 AUDIO
    TITLE "8:cjc041_4272"
    INDEX 01 00:57:72
  TRACK 46 AUDIO
    TITLE "0:"
    INDEX 01 00:59:49
  TRACK 47 AUDIO
    TITLE "9:cjc041_4273"
    INDEX 01 01:00:23
  TRACK 48 AUDIO
    TITLE "0:"
    INDEX 01 01:01:29
  TRACK 49 AUDIO
    TITLE "7:cjc041_4274"
    INDEX 01 01:03:10
  TRACK 50 AUDIO
    TITLE "0:"
    INDEX 01 01:04:31
  TRACK 51 AUDIO
    TITLE "8:cjc041_4275"
    INDEX 01 01:05:09
  TRACK 52 AUDIO
    TITLE "0:"
    INDEX 01 01:06:73
  TRACK 53 AUDIO
    TITLE "9:cjc041_4276"
    INDEX 01 01:07:51
  TRACK 54 AUDIO
    TITLE "0:"
    INDEX 01 01:08:70
  TRACK 55 AUDIO
    TITLE "7:cjc041_4277"
    INDEX 01 01:10:53
  TRACK 56 AUDIO
    TITLE "0:"
    INDEX 01 01:11:64
  TRACK 57 AUDIO
    TITLE "8:cjc041_4278"
    INDEX 01 01:12:42
  TRACK 58 AUDIO
    TITLE "0:"
    INDEX 01 01:14:51
  TRACK 59 AUDIO
    TITLE "9:cjc041_4279"
    INDEX 01 01:15:31
  TRACK 60 AUDIO
    TITLE "0:"
    INDEX 01 01:16:46
  TRACK 61 AUDIO
    TITLE "7:cjc041_4280"
    INDEX 01 01:18:23
  TRACK 62 AUDIO
    TITLE "0:"
    INDEX 01 01:19:36
  TRACK 63 AUDIO
    TITLE "8:cjc041_4281"
    INDEX 01 01:20:18
  TRACK 64 AUDIO
    TITLE "0:"
    INDEX 01 01:24:57
  TRACK 65 AUDIO
    TITLE "9:cjc041_4282"
    INDEX 01 01:25:29
  TRACK 66 AUDIO
    TITLE "0:"
    INDEX 01 01:26:40
  TRACK 67 AUDIO
    TITLE "7:cjc041_4283"
    INDEX 01 01:28:24
  TRACK 68 AUDIO
    TITLE "0:"
    INDEX 01 01:29:31
  TRACK 69 AUDIO
    TITLE "8:cjc041_4284"
    INDEX 01 01:30:07
  TRACK 70 AUDIO
    TITLE "0:"
    INDEX 01 01:33:44
  TRACK 71 AUDIO
    TITLE "9:cjc041_4285"
    INDEX 01 01:34:26
  TRACK 72 AUDIO
    TITLE "0:"
    INDEX 01 01:35:33
  TRACK 73 AUDIO
    TITLE "7:cjc041_4286"
    INDEX 01 01:37:17
  TRACK 74 AUDIO
    TITLE "0:"
    INDEX 01 01:38:45
  TRACK 75 AUDIO
    TITLE "8:cjc041_4287"
    INDEX 01 01:39:33
  TRACK 76 AUDIO
    TITLE "0:"
    INDEX 01 01:42:14
  TRACK 77 AUDIO
    TITLE "9:cjc041_4288"
    INDEX 01 01:42:69
  TRACK 78 AUDIO
    TITLE "0:"
    INDEX 01 01:44:23
  TRACK 79 AUDIO
    TITLE "7:cjc041_4289"
    INDEX 01 01:46:06
  TRACK 80 AUDIO
    TITLE "0:"
    INDEX 01 01:47:19
  TRACK 81 AUDIO
    TITLE "8:cjc041_4290"
    INDEX 01 01:48:01
  TRACK 82 AUDIO
    TITLE "0:"
    INDEX 01 01:49:37
  TRACK 83 AUDIO
    TITLE "9:cjc041_4291"
    INDEX 01 01:50:11
  TRACK 84 AUDIO
    TITLE "0:"
    INDEX 01 01:51:21
  TRACK 85 AUDIO
    TITLE "7:cjc041_4292"
    INDEX 01 01:53:06
  TRACK 86 AUDIO
    TITLE "0:"
    INDEX 01 01:54:21
  TRACK 87 AUDIO
    TITLE "8:cjc041_4293"
    INDEX 01 01:55:03
  TRACK 88 AUDIO
    TITLE "0:"
    INDEX 01 01:56:47
  TRACK 89 AUDIO
    TITLE "9:cjc041_4294"
    INDEX 01 01:57:27
  TRACK 90 AUDIO
    TITLE "0:"
    INDEX 01 01:58:46
  TRACK 91 AUDIO
    TITLE "7:cjc041_4295"
    INDEX 01 02:00:25
  TRACK 92 AUDIO
    TITLE "0:"
    INDEX 01 02:01:48
  TRACK 93 AUDIO
    TITLE "8:cjc041_4296"
    INDEX 01 02:02:26
  TRACK 94 AUDIO
    TITLE "0:"
    INDEX 01 02:03:63
  TRACK 95 AUDIO
    TITLE "9:cjc041_4297"
    INDEX 01 02:04:43
  TRACK 96 AUDIO
    TITLE "0:"
    INDEX 01 02:05:68
